{
	"asset":{
		"generator":"Khronos glTF Blender I/O v3.6.27",
		"version":"2.0"
	},
	"scene":0,
	"scenes":[
		{
			"name":"Scene",
			"nodes":[
				0,
				1
			]
		}
	],
	"nodes":[
		{
			"mesh":0,
			"name":"Plane"
		},
		{
			"mesh":1,
			"name":"Plane.001"
		}
	],
	"materials":[
		{
			"doubleSided":true,
			"name":"Island",
			"pbrMetallicRoughness":{
				"baseColorTexture":{
					"index":0
				},
				"metallicFactor":0
			}
		},
		{
			"doubleSided":true,
			"name":"Water",
			"pbrMetallicRoughness":{
				"baseColorTexture":{
					"index":1
				},
				"metallicFactor":0,
				"roughnessFactor":0
			}
		}
	],
	"meshes":[
		{
			"name":"Plane",
			"primitives":[
				{
					"attributes":{
						"POSITION":0,
						"NORMAL":1,
						"TEXCOORD_0":2
					},
					"indices":3,
					"material":0
				}
			]
		},
		{
			"name":"Plane.001",
			"primitives":[
				{
					"attributes":{
						"POSITION":4,
						"NORMAL":5,
						"TEXCOORD_0":6
					},
					"indices":7,
					"material":1
				}
			]
		}
	],
	"textures":[
		{
			"sampler":0,
			"source":0
		},
		{
			"sampler":0,
			"source":1
		}
	],
	"images":[
		{
			"mimeType":"image/png",
			"name":"Landscape",
			"uri":"Landscape.png"
		},
		{
			"mimeType":"image/png",
			"name":"Water",
			"uri":"Water.png"
		}
	],
	"accessors":[
		{
			"bufferView":0,
			"componentType":5126,
			"count":1933,
			"max":[
				5.854331016540527,
				2.8124940395355225,
				5.857412815093994
			],
			"min":[
				-4.972707748413086,
				-0.4509541690349579,
				-4.973908424377441
			],
			"type":"VEC3"
		},
		{
			"bufferView":1,
			"componentType":5126,
			"count":1933,
			"type":"VEC3"
		},
		{
			"bufferView":2,
			"componentType":5126,
			"count":1933,
			"type":"VEC2"
		},
		{
			"bufferView":3,
			"componentType":5123,
			"count":11217,
			"type":"SCALAR"
		},
		{
			"bufferView":4,
			"componentType":5126,
			"count":4,
			"max":[
				10.895318031311035,
				0.16523972153663635,
				10.243295669555664
			],
			"min":[
				-9.093445777893066,
				0.16523972153663635,
				-9.745468139648438
			],
			"type":"VEC3"
		},
		{
			"bufferView":5,
			"componentType":5126,
			"count":4,
			"type":"VEC3"
		},
		{
			"bufferView":6,
			"componentType":5126,
			"count":4,
			"type":"VEC2"
		},
		{
			"bufferView":7,
			"componentType":5123,
			"count":6,
			"type":"SCALAR"
		}
	],
	"bufferViews":[
		{
			"buffer":0,
			"byteLength":23196,
			"byteOffset":0,
			"target":34962
		},
		{
			"buffer":0,
			"byteLength":23196,
			"byteOffset":23196,
			"target":34962
		},
		{
			"buffer":0,
			"byteLength":15464,
			"byteOffset":46392,
			"target":34962
		},
		{
			"buffer":0,
			"byteLength":22434,
			"byteOffset":61856,
			"target":34963
		},
		{
			"buffer":0,
			"byteLength":48,
			"byteOffset":84292,
			"target":34962
		},
		{
			"buffer":0,
			"byteLength":48,
			"byteOffset":84340,
			"target":34962
		},
		{
			"buffer":0,
			"byteLength":32,
			"byteOffset":84388,
			"target":34962
		},
		{
			"buffer":0,
			"byteLength":12,
			"byteOffset":84420,
			"target":34963
		}
	],
	"samplers":[
		{
			"magFilter":9729,
			"minFilter":9987
		}
	],
	"buffers":[
		{
			"byteLength":84432,
			"uri":"landscape.bin"
		}
	]
}
