{
	"asset":{
		"generator":"Khronos glTF Blender I/O v3.6.27",
		"version":"2.0"
	},
	"scene":0,
	"scenes":[
		{
			"name":"Scene",
			"nodes":[
				0,
				1,
				2,
				3
			]
		}
	],
	"nodes":[
		{
			"mesh":0,
			"name":"Suzanne"
		},
		{
			"mesh":1,
			"name":"Sphere"
		},
		{
			"mesh":2,
			"name":"Plane"
		},
		{
			"mesh":3,
			"name":"Plane.001"
		}
	],
	"materials":[
		{
			"doubleSided":true,
			"name":"Monkey",
			"pbrMetallicRoughness":{
				"baseColorTexture":{
					"index":0
				},
				"metallicFactor":0,
				"roughnessFactor":0.5
			}
		},
		{
			"doubleSided":true,
			"name":"Sphere",
			"pbrMetallicRoughness":{
				"baseColorTexture":{
					"index":1
				},
				"metallicFactor":0,
				"roughnessFactor":0.5
			}
		},
		{
			"doubleSided":true,
			"name":"Torus",
			"pbrMetallicRoughness":{
				"baseColorTexture":{
					"index":2
				},
				"metallicFactor":0,
				"roughnessFactor":0.5
			}
		}
	],
	"meshes":[
		{
			"name":"Suzanne",
			"primitives":[
				{
					"attributes":{
						"POSITION":0,
						"NORMAL":1,
						"TEXCOORD_0":2
					},
					"indices":3,
					"material":0
				}
			]
		},
		{
			"name":"Sphere",
			"primitives":[
				{
					"attributes":{
						"POSITION":4,
						"NORMAL":5,
						"TEXCOORD_0":6
					},
					"indices":7,
					"material":1
				}
			]
		},
		{
			"name":"Plane.001",
			"primitives":[
				{
					"attributes":{
						"POSITION":8,
						"NORMAL":9,
						"TEXCOORD_0":10
					},
					"indices":11,
					"material":2
				}
			]
		},
		{
			"name":"Plane.002",
			"primitives":[
				{
					"attributes":{
						"POSITION":12,
						"NORMAL":13,
						"TEXCOORD_0":14
					},
					"indices":15,
					"material":1
				}
			]
		}
	],
	"textures":[
		{
			"sampler":0,
			"source":0
		},
		{
			"sampler":0,
			"source":1
		},
		{
			"sampler":0,
			"source":2
		}
	],
	"images":[
		{
			"mimeType":"image/png",
			"name":"Monkey",
			"uri":"tex/Monkey.png"
		},
		{
			"mimeType":"image/png",
			"name":"Sphere",
			"uri":"tex/Sphere.png"
		},
		{
			"mimeType":"image/png",
			"name":"Torrus",
			"uri":"tex/Torrus.png"
		}
	],
	"accessors":[
		{
			"bufferView":0,
			"componentType":5126,
			"count":27648,
			"max":[
				-0.46710169315338135,
				3.229653835296631,
				0.6656830906867981
			],
			"min":[
				-2.8589658737182617,
				1.3846229314804077,
				-1.2414475679397583
			],
			"type":"VEC3"
		},
		{
			"bufferView":1,
			"componentType":5126,
			"count":27648,
			"type":"VEC3"
		},
		{
			"bufferView":2,
			"componentType":5126,
			"count":27648,
			"type":"VEC2"
		},
		{
			"bufferView":3,
			"componentType":5123,
			"count":41472,
			"type":"SCALAR"
		},
		{
			"bufferView":4,
			"componentType":5126,
			"count":3968,
			"max":[
				-0.6408935785293579,
				2.901334762573242,
				0.6675156354904175
			],
			"min":[
				-1.7851966619491577,
				2.3059635162353516,
				-0.12581412494182587
			],
			"type":"VEC3"
		},
		{
			"bufferView":5,
			"componentType":5126,
			"count":3968,
			"type":"VEC3"
		},
		{
			"bufferView":6,
			"componentType":5126,
			"count":3968,
			"type":"VEC2"
		},
		{
			"bufferView":7,
			"componentType":5123,
			"count":5760,
			"type":"SCALAR"
		},
		{
			"bufferView":8,
			"componentType":5126,
			"count":66049,
			"max":[
				5.653045177459717,
				0.8700594305992126,
				5.6604108810424805
			],
			"min":[
				-5.622413158416748,
				-0.7344186902046204,
				-5.643960952758789
			],
			"type":"VEC3"
		},
		{
			"bufferView":9,
			"componentType":5126,
			"count":66049,
			"type":"VEC3"
		},
		{
			"bufferView":10,
			"componentType":5126,
			"count":66049,
			"type":"VEC2"
		},
		{
			"bufferView":11,
			"componentType":5125,
			"count":393216,
			"type":"SCALAR"
		},
		{
			"bufferView":12,
			"componentType":5126,
			"count":4,
			"max":[
				5.995819091796875,
				0,
				5.995819091796875
			],
			"min":[
				-5.995819091796875,
				0,
				-5.995819091796875
			],
			"type":"VEC3"
		},
		{
			"bufferView":13,
			"componentType":5126,
			"count":4,
			"type":"VEC3"
		},
		{
			"bufferView":14,
			"componentType":5126,
			"count":4,
			"type":"VEC2"
		},
		{
			"bufferView":15,
			"componentType":5123,
			"count":6,
			"type":"SCALAR"
		}
	],
	"bufferViews":[
		{
			"buffer":0,
			"byteLength":331776,
			"byteOffset":0,
			"target":34962
		},
		{
			"buffer":0,
			"byteLength":331776,
			"byteOffset":331776,
			"target":34962
		},
		{
			"buffer":0,
			"byteLength":221184,
			"byteOffset":663552,
			"target":34962
		},
		{
			"buffer":0,
			"byteLength":82944,
			"byteOffset":884736,
			"target":34963
		},
		{
			"buffer":0,
			"byteLength":47616,
			"byteOffset":967680,
			"target":34962
		},
		{
			"buffer":0,
			"byteLength":47616,
			"byteOffset":1015296,
			"target":34962
		},
		{
			"buffer":0,
			"byteLength":31744,
			"byteOffset":1062912,
			"target":34962
		},
		{
			"buffer":0,
			"byteLength":11520,
			"byteOffset":1094656,
			"target":34963
		},
		{
			"buffer":0,
			"byteLength":792588,
			"byteOffset":1106176,
			"target":34962
		},
		{
			"buffer":0,
			"byteLength":792588,
			"byteOffset":1898764,
			"target":34962
		},
		{
			"buffer":0,
			"byteLength":528392,
			"byteOffset":2691352,
			"target":34962
		},
		{
			"buffer":0,
			"byteLength":1572864,
			"byteOffset":3219744,
			"target":34963
		},
		{
			"buffer":0,
			"byteLength":48,
			"byteOffset":4792608,
			"target":34962
		},
		{
			"buffer":0,
			"byteLength":48,
			"byteOffset":4792656,
			"target":34962
		},
		{
			"buffer":0,
			"byteLength":32,
			"byteOffset":4792704,
			"target":34962
		},
		{
			"buffer":0,
			"byteLength":12,
			"byteOffset":4792736,
			"target":34963
		}
	],
	"samplers":[
		{
			"magFilter":9729,
			"minFilter":9987
		}
	],
	"buffers":[
		{
			"byteLength":4792748,
			"uri":"scene.bin"
		}
	]
}
