{
	"asset":{
		"generator":"Khronos glTF Blender I/O v3.6.27",
		"version":"2.0"
	},
	"scene":0,
	"scenes":[
		{
			"name":"Scene",
			"nodes":[
				0,
				1,
				2
			]
		}
	],
	"nodes":[
		{
			"mesh":0,
			"name":"Suzanne"
		},
		{
			"mesh":1,
			"name":"Torus"
		},
		{
			"mesh":2,
			"name":"Sphere"
		}
	],
	"materials":[
		{
			"doubleSided":true,
			"name":"Monkey",
			"pbrMetallicRoughness":{
				"baseColorTexture":{
					"index":0
				},
				"metallicFactor":0,
				"roughnessFactor":0.5
			}
		},
		{
			"doubleSided":true,
			"name":"Torus",
			"pbrMetallicRoughness":{
				"baseColorTexture":{
					"index":1
				},
				"metallicFactor":0,
				"roughnessFactor":0.5
			}
		},
		{
			"doubleSided":true,
			"name":"Sphere",
			"pbrMetallicRoughness":{
				"baseColorTexture":{
					"index":2
				},
				"metallicFactor":0,
				"roughnessFactor":0.5
			}
		}
	],
	"meshes":[
		{
			"name":"Suzanne",
			"primitives":[
				{
					"attributes":{
						"POSITION":0,
						"NORMAL":1,
						"TEXCOORD_0":2
					},
					"indices":3,
					"material":0
				}
			]
		},
		{
			"name":"Torus",
			"primitives":[
				{
					"attributes":{
						"POSITION":4,
						"NORMAL":5,
						"TEXCOORD_0":6
					},
					"indices":7,
					"material":1
				}
			]
		},
		{
			"name":"Sphere",
			"primitives":[
				{
					"attributes":{
						"POSITION":8,
						"NORMAL":9,
						"TEXCOORD_0":10
					},
					"indices":11,
					"material":2
				}
			]
		}
	],
	"textures":[
		{
			"sampler":0,
			"source":0
		},
		{
			"sampler":0,
			"source":1
		},
		{
			"sampler":0,
			"source":2
		}
	],
	"images":[
		{
			"mimeType":"image/png",
			"name":"Monkey",
			"uri":"tex/Monkey.png"
		},
		{
			"mimeType":"image/png",
			"name":"Torrus",
			"uri":"tex/Torrus.png"
		},
		{
			"mimeType":"image/png",
			"name":"Sphere",
			"uri":"tex/Sphere.png"
		}
	],
	"accessors":[
		{
			"bufferView":0,
			"componentType":5126,
			"count":8157,
			"max":[
				0.13175183534622192,
				1.718708872795105,
				0.6872415542602539
			],
			"min":[
				-2.328319549560547,
				-0.14661632478237152,
				-1.1619561910629272
			],
			"type":"VEC3"
		},
		{
			"bufferView":1,
			"componentType":5126,
			"count":8157,
			"type":"VEC3"
		},
		{
			"bufferView":2,
			"componentType":5126,
			"count":8157,
			"type":"VEC2"
		},
		{
			"bufferView":3,
			"componentType":5123,
			"count":47232,
			"type":"SCALAR"
		},
		{
			"bufferView":4,
			"componentType":5126,
			"count":2425,
			"max":[
				2.429689407348633,
				1.6531680822372437,
				0.6908187866210938
			],
			"min":[
				0.41874727606773376,
				-0.6666289567947388,
				-1.2611557245254517
			],
			"type":"VEC3"
		},
		{
			"bufferView":5,
			"componentType":5126,
			"count":2425,
			"type":"VEC3"
		},
		{
			"bufferView":6,
			"componentType":5126,
			"count":2425,
			"type":"VEC2"
		},
		{
			"bufferView":7,
			"componentType":5123,
			"count":13824,
			"type":"SCALAR"
		},
		{
			"bufferView":8,
			"componentType":5126,
			"count":8249,
			"max":[
				1.8955879211425781,
				1.1113455295562744,
				0.2576189935207367
			],
			"min":[
				0.8412927389144897,
				0.046002600342035294,
				-0.796676754951477
			],
			"type":"VEC3"
		},
		{
			"bufferView":9,
			"componentType":5126,
			"count":8249,
			"type":"VEC3"
		},
		{
			"bufferView":10,
			"componentType":5126,
			"count":8249,
			"type":"VEC2"
		},
		{
			"bufferView":11,
			"componentType":5123,
			"count":47616,
			"type":"SCALAR"
		}
	],
	"bufferViews":[
		{
			"buffer":0,
			"byteLength":97884,
			"byteOffset":0,
			"target":34962
		},
		{
			"buffer":0,
			"byteLength":97884,
			"byteOffset":97884,
			"target":34962
		},
		{
			"buffer":0,
			"byteLength":65256,
			"byteOffset":195768,
			"target":34962
		},
		{
			"buffer":0,
			"byteLength":94464,
			"byteOffset":261024,
			"target":34963
		},
		{
			"buffer":0,
			"byteLength":29100,
			"byteOffset":355488,
			"target":34962
		},
		{
			"buffer":0,
			"byteLength":29100,
			"byteOffset":384588,
			"target":34962
		},
		{
			"buffer":0,
			"byteLength":19400,
			"byteOffset":413688,
			"target":34962
		},
		{
			"buffer":0,
			"byteLength":27648,
			"byteOffset":433088,
			"target":34963
		},
		{
			"buffer":0,
			"byteLength":98988,
			"byteOffset":460736,
			"target":34962
		},
		{
			"buffer":0,
			"byteLength":98988,
			"byteOffset":559724,
			"target":34962
		},
		{
			"buffer":0,
			"byteLength":65992,
			"byteOffset":658712,
			"target":34962
		},
		{
			"buffer":0,
			"byteLength":95232,
			"byteOffset":724704,
			"target":34963
		}
	],
	"samplers":[
		{
			"magFilter":9729,
			"minFilter":9987
		}
	],
	"buffers":[
		{
			"byteLength":819936,
			"uri":"scene.bin"
		}
	]
}
