{
	"asset":{
		"generator":"Khronos glTF Blender I/O v3.6.27",
		"version":"2.0"
	},
	"scene":0,
	"scenes":[
		{
			"name":"Scene",
			"nodes":[
				0
			]
		}
	],
	"nodes":[
		{
			"mesh":0,
			"name":"Suzanne"
		}
	],
	"materials":[
		{
			"doubleSided":true,
			"name":"Material.001",
			"normalTexture":{
				"index":0
			},
			"pbrMetallicRoughness":{
				"baseColorTexture":{
					"index":1
				},
				"metallicFactor":0,
				"metallicRoughnessTexture":{
					"index":2
				}
			}
		}
	],
	"meshes":[
		{
			"name":"Suzanne",
			"primitives":[
				{
					"attributes":{
						"POSITION":0,
						"NORMAL":1,
						"TEXCOORD_0":2,
						"TANGENT":3
					},
					"indices":4,
					"material":0
				}
			]
		}
	],
	"textures":[
		{
			"sampler":0,
			"source":0
		},
		{
			"sampler":0,
			"source":1
		},
		{
			"sampler":0,
			"source":2
		}
	],
	"images":[
		{
			"mimeType":"image/png",
			"name":"normal",
			"uri":"tex/normal.png"
		},
		{
			"mimeType":"image/png",
			"name":"diffuse_map",
			"uri":"tex/diffuse_map.png"
		},
		{
			"mimeType":"image/png",
			"name":"orm",
			"uri":"tex/orm.png"
		}
	],
	"accessors":[
		{
			"bufferView":0,
			"componentType":5126,
			"count":2111,
			"max":[
				1.325934886932373,
				0.9392362236976624,
				0.8223199844360352
			],
			"min":[
				-1.325934886932373,
				-0.9704862236976624,
				-0.7782661318778992
			],
			"type":"VEC3"
		},
		{
			"bufferView":1,
			"componentType":5126,
			"count":2111,
			"type":"VEC3"
		},
		{
			"bufferView":2,
			"componentType":5126,
			"count":2111,
			"type":"VEC2"
		},
		{
			"bufferView":3,
			"componentType":5126,
			"count":2111,
			"type":"VEC4"
		},
		{
			"bufferView":4,
			"componentType":5123,
			"count":11808,
			"type":"SCALAR"
		}
	],
	"bufferViews":[
		{
			"buffer":0,
			"byteLength":25332,
			"byteOffset":0,
			"target":34962
		},
		{
			"buffer":0,
			"byteLength":25332,
			"byteOffset":25332,
			"target":34962
		},
		{
			"buffer":0,
			"byteLength":16888,
			"byteOffset":50664,
			"target":34962
		},
		{
			"buffer":0,
			"byteLength":33776,
			"byteOffset":67552,
			"target":34962
		},
		{
			"buffer":0,
			"byteLength":23616,
			"byteOffset":101328,
			"target":34963
		}
	],
	"samplers":[
		{
			"magFilter":9729,
			"minFilter":9987
		}
	],
	"buffers":[
		{
			"byteLength":124944,
			"uri":"monkey.bin"
		}
	]
}
