{
	"asset":{
		"generator":"Khronos glTF Blender I/O v3.6.27",
		"version":"2.0"
	},
	"scene":0,
	"scenes":[
		{
			"name":"Scene",
			"nodes":[
				0
			]
		}
	],
	"nodes":[
		{
			"mesh":0,
			"name":"Cube"
		}
	],
	"materials":[
		{
			"doubleSided":true,
			"name":"Material",
			"pbrMetallicRoughness":{
				"baseColorTexture":{
					"index":0
				},
				"metallicFactor":0,
				"roughnessFactor":0.5
			}
		}
	],
	"meshes":[
		{
			"name":"Cube",
			"primitives":[
				{
					"attributes":{
						"POSITION":0,
						"NORMAL":1,
						"TEXCOORD_0":2
					},
					"indices":3,
					"material":0
				}
			]
		}
	],
	"textures":[
		{
			"sampler":0,
			"source":0
		}
	],
	"images":[
		{
			"mimeType":"image/png",
			"name":"Skin",
			"uri":"tex/Skin.png"
		}
	],
	"accessors":[
		{
			"bufferView":0,
			"componentType":5126,
			"count":7131,
			"max":[
				1.0770763158798218,
				1.5311729907989502,
				0.3592816889286041
			],
			"min":[
				-1.108826756477356,
				-1.4466627836227417,
				-0.2837011218070984
			],
			"type":"VEC3"
		},
		{
			"bufferView":1,
			"componentType":5126,
			"count":7131,
			"type":"VEC3"
		},
		{
			"bufferView":2,
			"componentType":5126,
			"count":7131,
			"type":"VEC2"
		},
		{
			"bufferView":3,
			"componentType":5123,
			"count":40320,
			"type":"SCALAR"
		}
	],
	"bufferViews":[
		{
			"buffer":0,
			"byteLength":85572,
			"byteOffset":0,
			"target":34962
		},
		{
			"buffer":0,
			"byteLength":85572,
			"byteOffset":85572,
			"target":34962
		},
		{
			"buffer":0,
			"byteLength":57048,
			"byteOffset":171144,
			"target":34962
		},
		{
			"buffer":0,
			"byteLength":80640,
			"byteOffset":228192,
			"target":34963
		}
	],
	"samplers":[
		{
			"magFilter":9729,
			"minFilter":9987
		}
	],
	"buffers":[
		{
			"byteLength":308832,
			"uri":"woman.bin"
		}
	]
}
