{
	"asset":{
		"generator":"Khronos glTF Blender I/O v3.6.27",
		"version":"2.0"
	},
	"scene":0,
	"scenes":[
		{
			"name":"Scene",
			"nodes":[
				0
			]
		}
	],
	"nodes":[
		{
			"mesh":0,
			"name":"Cube"
		}
	],
	"materials":[
		{
			"doubleSided":true,
			"name":"Material",
			"pbrMetallicRoughness":{
				"baseColorTexture":{
					"index":0
				},
				"metallicFactor":0,
				"roughnessFactor":0.5
			}
		}
	],
	"meshes":[
		{
			"name":"Cube",
			"primitives":[
				{
					"attributes":{
						"POSITION":0,
						"NORMAL":1,
						"TEXCOORD_0":2
					},
					"indices":3,
					"material":0
				}
			]
		}
	],
	"textures":[
		{
			"sampler":0,
			"source":0
		}
	],
	"images":[
		{
			"mimeType":"image/png",
			"name":"Skin",
			"uri":"tex/Skin.png"
		}
	],
	"accessors":[
		{
			"bufferView":0,
			"componentType":5126,
			"count":539,
			"max":[
				1.1023057699203491,
				1.5335899591445923,
				0.3803267478942871
			],
			"min":[
				-1.1266194581985474,
				-1.504852294921875,
				-0.32154569029808044
			],
			"type":"VEC3"
		},
		{
			"bufferView":1,
			"componentType":5126,
			"count":539,
			"type":"VEC3"
		},
		{
			"bufferView":2,
			"componentType":5126,
			"count":539,
			"type":"VEC2"
		},
		{
			"bufferView":3,
			"componentType":5123,
			"count":2592,
			"type":"SCALAR"
		}
	],
	"bufferViews":[
		{
			"buffer":0,
			"byteLength":6468,
			"byteOffset":0,
			"target":34962
		},
		{
			"buffer":0,
			"byteLength":6468,
			"byteOffset":6468,
			"target":34962
		},
		{
			"buffer":0,
			"byteLength":4312,
			"byteOffset":12936,
			"target":34962
		},
		{
			"buffer":0,
			"byteLength":5184,
			"byteOffset":17248,
			"target":34963
		}
	],
	"samplers":[
		{
			"magFilter":9729,
			"minFilter":9987
		}
	],
	"buffers":[
		{
			"byteLength":22432,
			"uri":"monkey.bin"
		}
	]
}
