{
	"asset":{
		"generator":"Khronos glTF Blender I/O v3.6.27",
		"version":"2.0"
	},
	"scene":0,
	"scenes":[
		{
			"name":"Scene",
			"nodes":[
				0
			]
		}
	],
	"nodes":[
		{
			"mesh":0,
			"name":"rep_inf_ep3trooper"
		}
	],
	"materials":[
		{
			"doubleSided":true,
			"name":"Clone",
			"pbrMetallicRoughness":{
				"baseColorTexture":{
					"index":0
				},
				"metallicFactor":0
			}
		}
	],
	"meshes":[
		{
			"name":"rep_inf_ep3trooper",
			"primitives":[
				{
					"attributes":{
						"POSITION":0,
						"NORMAL":1,
						"TEXCOORD_0":2,
						"TANGENT":3
					},
					"indices":4,
					"material":0
				}
			]
		}
	],
	"textures":[
		{
			"sampler":0,
			"source":0
		}
	],
	"images":[
		{
			"mimeType":"image/png",
			"name":"rep_inf_ep3trooper",
			"uri":"textures/rep_inf_ep3trooper.png"
		}
	],
	"accessors":[
		{
			"bufferView":0,
			"componentType":5126,
			"count":1478,
			"max":[
				0.9294760227203369,
				2.082674026489258,
				0.20352508127689362
			],
			"min":[
				-0.9294760227203369,
				-0.001196008757688105,
				-0.2331419140100479
			],
			"type":"VEC3"
		},
		{
			"bufferView":1,
			"componentType":5126,
			"count":1478,
			"type":"VEC3"
		},
		{
			"bufferView":2,
			"componentType":5126,
			"count":1478,
			"type":"VEC2"
		},
		{
			"bufferView":3,
			"componentType":5126,
			"count":1478,
			"type":"VEC4"
		},
		{
			"bufferView":4,
			"componentType":5123,
			"count":5166,
			"type":"SCALAR"
		}
	],
	"bufferViews":[
		{
			"buffer":0,
			"byteLength":17736,
			"byteOffset":0,
			"target":34962
		},
		{
			"buffer":0,
			"byteLength":17736,
			"byteOffset":17736,
			"target":34962
		},
		{
			"buffer":0,
			"byteLength":11824,
			"byteOffset":35472,
			"target":34962
		},
		{
			"buffer":0,
			"byteLength":23648,
			"byteOffset":47296,
			"target":34962
		},
		{
			"buffer":0,
			"byteLength":10332,
			"byteOffset":70944,
			"target":34963
		}
	],
	"samplers":[
		{
			"magFilter":9729,
			"minFilter":9987
		}
	],
	"buffers":[
		{
			"byteLength":81276,
			"uri":"clone.bin"
		}
	]
}
