{
	"asset":{
		"generator":"Khronos glTF Blender I/O v3.6.27",
		"version":"2.0"
	},
	"extensionsUsed":[
		"KHR_materials_specular",
		"KHR_materials_ior"
	],
	"scene":0,
	"scenes":[
		{
			"name":"Scene",
			"nodes":[
				0
			]
		}
	],
	"nodes":[
		{
			"mesh":0,
			"name":"rep_inf_ep3trooper"
		}
	],
	"materials":[
		{
			"doubleSided":true,
			"extensions":{
				"KHR_materials_specular":{
					"specularColorFactor":[
						0,
						0,
						0
					]
				},
				"KHR_materials_ior":{
					"ior":1.4500000476837158
				}
			},
			"name":"Material",
			"pbrMetallicRoughness":{
				"baseColorTexture":{
					"index":0
				},
				"metallicFactor":0,
				"roughnessFactor":0.9292893409729004
			}
		}
	],
	"meshes":[
		{
			"name":"rep_inf_ep3trooper",
			"primitives":[
				{
					"attributes":{
						"POSITION":0,
						"NORMAL":1,
						"TEXCOORD_0":2
					},
					"indices":3,
					"material":0
				}
			]
		}
	],
	"textures":[
		{
			"sampler":0,
			"source":0
		}
	],
	"images":[
		{
			"mimeType":"image/png",
			"name":"rep_inf_ep3trooper",
			"uri":"rep_inf_ep3trooper.png"
		}
	],
	"accessors":[
		{
			"bufferView":0,
			"componentType":5126,
			"count":2689,
			"max":[
				0.9294760227203369,
				2.082674026489258,
				0.20352508127689362
			],
			"min":[
				-0.9294760227203369,
				-0.001196008757688105,
				-0.2331419140100479
			],
			"type":"VEC3"
		},
		{
			"bufferView":1,
			"componentType":5126,
			"count":2689,
			"type":"VEC3"
		},
		{
			"bufferView":2,
			"componentType":5126,
			"count":2689,
			"type":"VEC2"
		},
		{
			"bufferView":3,
			"componentType":5123,
			"count":5166,
			"type":"SCALAR"
		}
	],
	"bufferViews":[
		{
			"buffer":0,
			"byteLength":32268,
			"byteOffset":0,
			"target":34962
		},
		{
			"buffer":0,
			"byteLength":32268,
			"byteOffset":32268,
			"target":34962
		},
		{
			"buffer":0,
			"byteLength":21512,
			"byteOffset":64536,
			"target":34962
		},
		{
			"buffer":0,
			"byteLength":10332,
			"byteOffset":86048,
			"target":34963
		}
	],
	"samplers":[
		{
			"magFilter":9729,
			"minFilter":9987
		}
	],
	"buffers":[
		{
			"byteLength":96380,
			"uri":"clone.bin"
		}
	]
}
